<?xml version="1.0" encoding="UTF-8"?>
<!DOCTYPE svg PUBLIC "-//W3C//DTD SVG 1.1//EN" "http://www.w3.org/Graphics/SVG/1.1/DTD/svg11.dtd">
<svg xmlns="http://www.w3.org/2000/svg" version="1.1" width="512px" height="512px" style="shape-rendering:geometricPrecision; text-rendering:geometricPrecision; image-rendering:optimizeQuality; fill-rule:evenodd; clip-rule:evenodd" xmlns:xlink="http://www.w3.org/1999/xlink">
<g><path style="opacity:0.992" fill="#3c122c" d="M 286.5,-0.5 C 290.167,-0.5 293.833,-0.5 297.5,-0.5C 300.81,1.31244 303.31,3.97911 305,7.5C 308.111,23.393 309.278,39.393 308.5,55.5C 309.355,60.2344 310.522,64.9011 312,69.5C 312.975,77.2928 312.475,84.9594 310.5,92.5C 312.921,100.294 314.088,108.294 314,116.5C 317.686,118.177 321.519,119.01 325.5,119C 336.963,107.199 350.297,98.199 365.5,92C 382.199,88.4349 392.699,94.9349 397,111.5C 400.337,133.197 400.171,154.864 396.5,176.5C 417.665,210.657 424.998,247.657 418.5,287.5C 418.938,303.735 421.105,319.735 425,335.5C 437.136,370.613 441.136,406.613 437,443.5C 454.934,457.838 457.934,474.838 446,494.5C 437.72,503.72 427.553,509.386 415.5,511.5C 314.167,511.5 212.833,511.5 111.5,511.5C 66.3146,501.812 39.4813,474.146 31,428.5C 30.0619,412.446 30.3952,396.446 32,380.5C 39.8371,362.995 53.3371,355.495 72.5,358C 86.6667,361.5 95.5,370.333 99,384.5C 99.0962,397.88 99.7628,411.213 101,424.5C 103.242,430.334 106.909,435.001 112,438.5C 109.27,411.97 110.937,385.636 117,359.5C 123.874,340.006 128.54,320.006 131,299.5C 131.647,284.992 131.48,270.492 130.5,256C 130.876,231.493 136.876,208.493 148.5,187C 143.991,164.368 142.825,141.535 145,118.5C 147.765,96.0232 159.931,87.5232 181.5,93C 196.087,100.127 209.087,109.46 220.5,121C 228.077,119.092 235.744,117.258 243.5,115.5C 244.44,112.286 245.94,109.286 248,106.5C 248.578,96.9556 250.245,87.6222 253,78.5C 254.882,73.9559 257.549,69.9559 261,66.5C 265.818,45.2232 272.485,24.5565 281,4.5C 282.73,2.59809 284.563,0.93142 286.5,-0.5 Z"/></g>
<g><path style="opacity:0.968" fill="#e9c3d9" d="M 49.5,2.5 C 51.5824,2.47199 53.4157,3.13865 55,4.5C 58.0683,13.205 61.2349,21.8717 64.5,30.5C 71.4978,34.6679 78.8312,38.1679 86.5,41C 89.9779,43.7065 90.3112,46.7065 87.5,50C 79.436,53.449 71.6027,57.2823 64,61.5C 61.1116,70.2751 57.945,78.9418 54.5,87.5C 52.2552,89.9592 50.0886,89.9592 48,87.5C 44.8633,78.4229 41.53,69.4229 38,60.5C 30.2266,56.7404 22.3933,53.0737 14.5,49.5C 13.2234,46.9659 13.2234,44.4659 14.5,42C 22.6525,38.4232 30.6525,34.5899 38.5,30.5C 41.792,20.9461 45.4586,11.6127 49.5,2.5 Z"/></g>
<g><path style="opacity:0.923" fill="#d88bba" d="M 200.5,31.5 C 212.635,31.4564 215.635,36.6231 209.5,47C 205.085,49.3447 201.085,48.8447 197.5,45.5C 194.42,39.8955 195.42,35.2288 200.5,31.5 Z"/></g>
<g><path style="opacity:0.956" fill="#e9c3d9" d="M 467.5,35.5 C 469.144,35.2865 470.644,35.6198 472,36.5C 474.333,42.8333 476.667,49.1667 479,55.5C 484.603,58.7178 490.437,61.5512 496.5,64C 497.982,66.5918 497.648,68.9251 495.5,71C 489.925,73.3713 484.425,75.8713 479,78.5C 477.031,84.7421 474.864,90.9088 472.5,97C 470.005,100.497 467.838,100.33 466,96.5C 464.313,89.4179 461.48,82.9179 457.5,77C 452.5,74.8333 447.5,72.6667 442.5,70.5C 439.92,68.287 439.92,66.1203 442.5,64C 448.532,61.5671 454.366,58.7338 460,55.5C 462.017,48.6109 464.517,41.9443 467.5,35.5 Z"/></g>
<g><path style="opacity:1" fill="#d8bf63" d="M 287.5,44.5 C 288.777,49.3902 288.61,54.3902 287,59.5C 285.815,61.5593 284.648,61.726 283.5,60C 285.229,54.915 286.563,49.7483 287.5,44.5 Z"/></g>
<g><path style="opacity:1" fill="#efd96b" d="M 289.5,71.5 C 290.496,71.4142 291.329,71.7476 292,72.5C 293.209,78.8859 292.209,84.8859 289,90.5C 282.667,93.5 276.333,96.5 270,99.5C 269.629,85.3724 276.129,76.0391 289.5,71.5 Z"/></g>
<g><path style="opacity:1" fill="#f1db6c" d="M 267.5,133.5 C 264.169,133.982 261.503,132.982 259.5,130.5C 261.254,123.663 264.587,117.663 269.5,112.5C 276.954,108.742 284.621,105.908 292.5,104C 293.637,109.082 293.804,114.249 293,119.5C 292.261,121.221 291.427,122.887 290.5,124.5C 282.888,127.703 275.222,130.703 267.5,133.5 Z"/></g>
<g><path style="opacity:1" fill="#e7c1d7" d="M 355.5,121.5 C 355.699,137.078 354.699,152.578 352.5,168C 352.667,169.167 352.833,170.333 353,171.5C 370.992,199.453 377.492,229.953 372.5,263C 372.532,272.859 373.032,282.692 374,292.5C 377.524,308.261 381.524,323.928 386,339.5C 390.671,367.026 391.671,394.693 389,422.5C 387.066,431.87 382.899,440.037 376.5,447C 373.952,449.442 370.952,451.108 367.5,452C 341.551,453.463 315.551,453.963 289.5,453.5C 277.854,439.84 263.187,434.34 245.5,437C 240.576,442.226 240.242,447.726 244.5,453.5C 222.164,453.667 199.831,453.5 177.5,453C 158.063,449.367 142.73,439.534 131.5,423.5C 130.961,408.071 131.794,392.738 134,377.5C 137.522,361.601 141.855,345.935 147,330.5C 152.392,305.911 153.892,281.078 151.5,256C 151.165,241.008 153.665,226.508 159,212.5C 162.93,204.478 166.43,196.311 169.5,188C 165.059,166.03 163.559,143.863 165,121.5C 165.511,119.122 166.178,116.788 167,114.5C 167.408,112.59 168.575,111.59 170.5,111.5C 180.254,114.876 188.921,120.042 196.5,127C 202.833,132.667 209.167,138.333 215.5,144C 217.5,144.667 219.5,144.667 221.5,144C 226.756,141.859 232.09,140.026 237.5,138.5C 235.806,150.281 239.806,159.448 249.5,166C 262.312,173.058 275.979,175.391 290.5,173C 303.499,171.329 311.332,164.163 314,151.5C 314.172,147.129 314.672,142.796 315.5,138.5C 319.772,141.427 324.438,142.594 329.5,142C 336.794,136.374 343.794,130.374 350.5,124C 352.078,122.906 353.745,122.072 355.5,121.5 Z"/></g>
<g><path style="opacity:1" fill="#d291d6" d="M 410.5,490.5 C 370.663,490.832 330.996,490.499 291.5,489.5C 297.279,477.089 296.613,465.089 289.5,453.5C 315.551,453.963 341.551,453.463 367.5,452C 370.952,451.108 373.952,449.442 376.5,447C 382.899,440.037 387.066,431.87 389,422.5C 391.671,394.693 390.671,367.026 386,339.5C 381.524,323.928 377.524,308.261 374,292.5C 373.032,282.692 372.532,272.859 372.5,263C 377.492,229.953 370.992,199.453 353,171.5C 352.833,170.333 352.667,169.167 352.5,168C 354.699,152.578 355.699,137.078 355.5,121.5C 360.35,116.904 366.017,113.57 372.5,111.5C 374.029,111.529 375.196,112.196 376,113.5C 379.27,125.952 380.27,138.619 379,151.5C 377.756,161.857 376.756,172.19 376,182.5C 388.095,200.031 395.762,219.365 399,240.5C 398.82,261.83 398.82,283.164 399,304.5C 400.019,315.262 401.685,325.928 404,336.5C 408.891,351.957 412.891,367.624 416,383.5C 417.815,400.817 417.982,418.15 416.5,435.5C 411.154,434.854 406.154,435.688 401.5,438C 395.654,450.193 399.654,456.193 413.5,456C 420.837,457.082 426.67,460.582 431,466.5C 434.194,474.387 432.361,480.887 425.5,486C 420.817,488.682 415.817,490.182 410.5,490.5 Z"/></g>
<g><path style="opacity:1" fill="#cf9e64" d="M 259.5,130.5 C 261.503,132.982 264.169,133.982 267.5,133.5C 264.709,134.719 261.876,136.052 259,137.5C 258.204,134.961 258.371,132.628 259.5,130.5 Z"/></g>
<g><path style="opacity:1" fill="#d6a267" d="M 291.5,136.5 C 292.5,136.5 293.5,136.5 294.5,136.5C 294.666,141.179 294.499,145.845 294,150.5C 289.721,152.998 285.054,153.998 280,153.5C 273.354,154.128 267.187,152.795 261.5,149.5C 271.567,145.151 281.567,140.817 291.5,136.5 Z"/></g>
<g><path style="opacity:0.965" fill="#d789b9" d="M 79.5,145.5 C 96.6144,145.378 102.114,153.378 96,169.5C 89.7661,175.008 82.9328,175.841 75.5,172C 69.6884,166.896 68.1884,160.729 71,153.5C 73.0982,149.897 75.9315,147.23 79.5,145.5 Z"/></g>
<g><path style="opacity:1" fill="#3e142e" d="M 271.5,212.5 C 274.482,212.104 277.149,212.771 279.5,214.5C 279.815,220.623 282.148,225.79 286.5,230C 290.992,232.354 295.659,234.187 300.5,235.5C 302.705,240.761 301.039,243.761 295.5,244.5C 292.853,258.169 284.52,264.669 270.5,264C 261.296,261.629 255.629,255.795 253.5,246.5C 246.522,242.798 245.856,238.298 251.5,233C 262.65,232.517 268.483,226.684 269,215.5C 270.045,214.627 270.878,213.627 271.5,212.5 Z"/></g>
<g><path style="opacity:1" fill="#3e152e" d="M 333.5,217.5 C 347.431,217.918 351.931,224.584 347,237.5C 338.892,244.761 331.892,243.761 326,234.5C 323.66,226.525 326.16,220.858 333.5,217.5 Z"/></g>
<g><path style="opacity:1" fill="#3f152f" d="M 207.5,217.5 C 219.87,216.7 225.036,222.367 223,234.5C 218.539,242.324 212.372,244.157 204.5,240C 197.099,231.372 198.099,223.872 207.5,217.5 Z"/></g>
<g><path style="opacity:1" fill="#d084b3" d="M 273.5,235.5 C 276.464,237.448 279.464,239.448 282.5,241.5C 283.865,247.833 281.199,251.5 274.5,252.5C 269.356,251.854 266.356,249.021 265.5,244C 268.277,241.386 270.943,238.553 273.5,235.5 Z"/></g>
<g><path style="opacity:1" fill="#fefdfe" d="M 171.5,319.5 C 179.025,318.534 183.692,321.701 185.5,329C 183.678,335.142 181.178,340.975 178,346.5C 168.92,353.372 162.753,351.372 159.5,340.5C 161.736,332.346 165.736,325.346 171.5,319.5 Z"/></g>
<g><path style="opacity:1" fill="#3f152f" d="M 371.5,341.5 C 375.273,340.822 378.106,342.156 380,345.5C 385.21,358.503 384.544,371.17 378,383.5C 364.909,396.841 350.742,398.007 335.5,387C 331.248,383.419 327.748,379.252 325,374.5C 322.05,369.073 323.383,365.407 329,363.5C 330.627,363.625 332.127,364.125 333.5,365C 337.846,375.026 345.346,380.859 356,382.5C 364.092,381.742 369.092,377.409 371,369.5C 372.102,361.917 371.269,354.583 368.5,347.5C 368.628,345.045 369.628,343.045 371.5,341.5 Z"/></g>
<g><path style="opacity:1" fill="#3f152f" d="M 245.5,351.5 C 247.936,351.317 250.103,351.984 252,353.5C 261.311,370.996 258.811,386.496 244.5,400C 223.227,408.293 207.393,402.127 197,381.5C 196.332,375.171 199.166,372.671 205.5,374C 209.559,382.392 215.892,388.392 224.5,392C 235.278,393.564 242.111,389.064 245,378.5C 245.667,375.167 245.667,371.833 245,368.5C 243.692,364.715 242.525,360.881 241.5,357C 241.901,354.44 243.234,352.607 245.5,351.5 Z"/></g>
<g><path style="opacity:1" fill="#fefdfe" d="M 155.5,362.5 C 163.872,360.893 168.539,364.226 169.5,372.5C 168.203,380.132 167.036,387.799 166,395.5C 165.589,405.184 165.589,414.851 166,424.5C 162.831,431.482 157.664,433.316 150.5,430C 148.951,428.786 147.785,427.286 147,425.5C 144.476,406.645 145.476,387.978 150,369.5C 150.967,366.379 152.8,364.046 155.5,362.5 Z"/></g>
<g><path style="opacity:1" fill="#e5bfd5" d="M 78.5,388.5 C 78.5,391.833 78.5,395.167 78.5,398.5C 69.5,398.5 60.5,398.5 51.5,398.5C 51.5,395.167 51.5,391.833 51.5,388.5C 56.4349,377.199 64.1016,374.866 74.5,381.5C 76.6159,383.4 77.9493,385.733 78.5,388.5 Z"/></g>
<g><path style="opacity:1" fill="#b18aa1" d="M 51.5,388.5 C 51.5,391.833 51.5,395.167 51.5,398.5C 60.5,398.5 69.5,398.5 78.5,398.5C 78.5,395.167 78.5,391.833 78.5,388.5C 79.4816,391.962 79.815,395.629 79.5,399.5C 69.8333,399.5 60.1667,399.5 50.5,399.5C 50.185,395.629 50.5184,391.962 51.5,388.5 Z"/></g>
<g><path style="opacity:1" fill="#694058" d="M 79.5,411.5 C 70.1667,411.5 60.8333,411.5 51.5,411.5C 51.5,415.5 51.5,419.5 51.5,423.5C 50.5151,419.366 50.1818,415.032 50.5,410.5C 60.3478,410.173 70.0144,410.506 79.5,411.5 Z"/></g>
<g><path style="opacity:1" fill="#e6c0d6" d="M 79.5,411.5 C 79.447,417.196 79.7803,422.862 80.5,428.5C 70.8333,428.5 61.1667,428.5 51.5,428.5C 51.5,426.833 51.5,425.167 51.5,423.5C 51.5,419.5 51.5,415.5 51.5,411.5C 60.8333,411.5 70.1667,411.5 79.5,411.5 Z"/></g>
<g><path style="opacity:1" fill="#d190d6" d="M 131.5,423.5 C 142.73,439.534 158.063,449.367 177.5,453C 199.831,453.5 222.164,453.667 244.5,453.5C 251.57,454.796 258.57,456.629 265.5,459C 278.381,468.003 278.714,477.336 266.5,487C 264.167,488 261.833,489 259.5,490C 240.041,491.136 220.541,491.636 201,491.5C 183.167,491.167 165.333,490.833 147.5,490.5C 138.214,469.117 132.88,446.784 131.5,423.5 Z"/></g>
<g><path style="opacity:1" fill="#e5bed4" d="M 55.5,440.5 C 65.8548,440.168 76.1881,440.501 86.5,441.5C 93.6511,452.482 103.651,459.315 116.5,462C 119.598,471.794 122.598,481.628 125.5,491.5C 90.8308,489.804 67.4974,472.804 55.5,440.5 Z"/></g>
<g><path style="opacity:1" fill="#965e93" d="M 291.5,489.5 C 330.996,490.499 370.663,490.832 410.5,490.5C 370.665,491.831 330.665,491.831 290.5,490.5C 290.624,489.893 290.957,489.56 291.5,489.5 Z"/></g>
</svg>
